<?xml version="1.0" standalone="no"?>
<!DOCTYPE svg PUBLIC "-//W3C//DTD SVG 20010904//EN"
 "http://www.w3.org/TR/2001/REC-SVG-20010904/DTD/svg10.dtd">
<svg version="1.0" xmlns="http://www.w3.org/2000/svg"
 width="700.000000pt" height="700.000000pt" viewBox="0 0 700.000000 700.000000"
 preserveAspectRatio="xMidYMid meet">
<metadata>
Created by potrace 1.14, written by Peter Selinger 2001-2017
</metadata>
<g transform="translate(0.000000,700.000000) scale(0.100000,-0.100000)"
fill="#000000" stroke="none">
<path d="M3278 6995 c-1 -1 -41 -6 -88 -9 -47 -4 -101 -9 -120 -12 -37 -5
-153 -22 -205 -30 -158 -25 -552 -139 -670 -193 -11 -6 -54 -24 -95 -42 -172
-73 -444 -224 -581 -322 -31 -23 -67 -49 -79 -57 -13 -8 -59 -44 -104 -79
-598 -474 -1026 -1123 -1220 -1851 -25 -92 -42 -172 -71 -330 -3 -14 -7 -47
-11 -75 -3 -27 -8 -57 -9 -66 -19 -98 -27 -593 -12 -729 3 -36 9 -92 13 -125
17 -183 86 -485 159 -700 222 -660 645 -1242 1215 -1675 75 -57 217 -155 255
-176 11 -6 56 -33 100 -59 81 -48 376 -195 392 -195 5 0 27 -9 49 -19 71 -34
392 -137 484 -155 14 -3 59 -12 100 -21 41 -9 84 -18 95 -20 33 -6 97 -16 140
-21 22 -3 51 -7 65 -10 160 -25 680 -25 842 1 13 2 43 6 68 9 25 3 72 11 105
17 33 5 74 12 90 15 80 14 294 70 412 109 1045 345 1873 1169 2224 2216 35
105 105 367 114 429 2 14 6 34 9 46 2 12 7 45 11 75 4 30 8 56 10 59 2 3 6 39
10 80 4 41 9 89 12 105 2 17 6 138 7 270 3 216 -1 309 -19 462 -75 634 -318
1225 -712 1730 -148 191 -353 403 -513 533 -30 25 -57 48 -60 51 -31 35 -269
199 -416 287 -359 213 -810 376 -1214 438 -25 3 -52 8 -60 9 -8 2 -44 6 -80
10 -36 4 -81 10 -100 12 -42 5 -537 13 -542 8z m482 -229 c119 -10 187 -18
290 -36 30 -5 69 -12 86 -15 17 -2 84 -18 150 -35 65 -17 126 -33 134 -35 41
-9 243 -81 319 -112 114 -47 251 -112 331 -158 36 -21 81 -46 100 -57 137 -78
342 -227 484 -353 618 -543 995 -1257 1101 -2085 18 -146 25 -478 12 -634 -45
-540 -217 -1056 -505 -1506 -48 -75 -169 -245 -197 -276 -5 -7 -19 -22 -29
-35 -145 -182 -373 -400 -571 -549 -99 -73 -289 -200 -301 -200 -4 0 -15 -6
-23 -14 -34 -30 -323 -169 -461 -223 -169 -65 -452 -145 -600 -168 -25 -4 -53
-9 -64 -11 -10 -2 -44 -6 -75 -10 -31 -3 -65 -8 -76 -10 -110 -23 -613 -23
-730 0 -11 2 -47 7 -80 11 -32 4 -67 8 -76 10 -9 2 -32 6 -50 9 -319 51 -699
186 -1008 358 -58 32 -106 58 -107 58 -8 0 -205 135 -289 199 -597 451 -1026
1101 -1205 1823 -16 64 -31 131 -34 150 -3 18 -7 42 -10 53 -2 11 -9 56 -15
100 -7 44 -14 94 -16 110 -10 61 -19 244 -19 370 0 233 18 428 59 635 8 41 17
84 19 95 12 61 52 203 86 305 178 537 488 1010 916 1400 100 91 119 106 240
196 379 282 790 471 1249 573 122 27 152 33 265 47 25 3 56 7 70 10 14 2 77 7
140 10 63 4 116 8 118 9 4 3 313 -4 372 -9z"/>
<path d="M3428 6523 c-14 -16 -35 -44 -46 -63 -10 -19 -109 -195 -219 -390
-110 -195 -214 -380 -230 -410 -17 -30 -88 -156 -158 -280 -115 -206 -126
-228 -121 -265 3 -28 14 -48 36 -67 31 -29 43 -31 148 -30 34 0 62 -2 62 -5 0
-5 -89 -172 -115 -215 -5 -9 -19 -34 -31 -55 -12 -21 -82 -146 -156 -278 -75
-132 -148 -262 -163 -290 -15 -27 -57 -102 -93 -165 -36 -63 -79 -140 -95
-170 -16 -30 -34 -60 -39 -67 -16 -21 -2 -92 23 -119 29 -31 67 -41 152 -38
37 1 67 0 67 -3 0 -10 -265 -490 -300 -543 -5 -8 -26 -44 -45 -80 -19 -36 -47
-85 -61 -110 -46 -80 -261 -464 -278 -497 -26 -52 -21 -90 18 -129 19 -19 45
-35 57 -35 13 -1 362 -3 774 -4 413 -1 756 -3 763 -4 9 -1 12 -57 12 -246 l0
-245 -42 -1 c-24 0 -279 0 -568 -1 l-524 0 -2 90 c0 50 -7 105 -14 122 -27 64
-117 80 -172 31 -33 -29 -33 -30 -36 -135 l-4 -106 -31 -1 c-18 0 -199 0 -404
-1 -346 0 -373 -1 -402 -19 -59 -36 -67 -104 -19 -170 32 -44 253 -269 339
-345 143 -126 395 -296 592 -397 231 -120 537 -230 762 -273 11 -2 43 -8 70
-14 89 -17 228 -36 340 -45 79 -7 389 -7 450 0 22 2 69 7 105 10 36 4 74 9 84
11 11 2 41 6 67 9 171 19 520 119 557 158 49 52 34 140 -28 172 -41 21 -62 19
-167 -15 -88 -29 -220 -63 -292 -75 -19 -3 -37 -8 -41 -10 -3 -2 -35 -7 -70
-10 -35 -3 -66 -8 -70 -10 -29 -18 -498 -27 -640 -12 -546 57 -1050 259 -1473
591 -55 42 -109 87 -121 99 -12 12 -38 36 -57 53 -19 16 -42 39 -51 50 -16 19
6 19 1965 18 1090 -1 1986 -2 1990 -3 9 -1 -81 -86 -178 -167 -126 -106 -264
-201 -443 -303 -40 -23 -79 -53 -88 -66 -48 -74 19 -182 104 -169 70 11 333
176 530 333 116 92 369 339 420 410 36 49 40 86 16 132 -28 55 -44 57 -449 58
-204 0 -382 0 -397 0 l-26 1 -4 106 c-3 105 -3 106 -36 135 -37 33 -85 38
-130 15 -43 -22 -55 -55 -56 -161 l-1 -95 -40 -1 c-49 0 -993 0 -1053 1 l-42
0 2 248 3 247 755 1 c415 1 767 2 782 3 40 2 88 49 94 93 7 42 13 32 -253 503
-171 305 -198 352 -259 463 -15 26 -45 79 -67 117 -55 97 -117 213 -117 218 0
2 30 3 68 2 84 -2 122 8 152 40 37 39 35 95 -5 164 -18 31 -46 81 -62 111 -17
30 -47 84 -68 120 -20 36 -50 88 -65 115 -15 28 -108 194 -207 370 -99 176
-195 347 -213 380 -18 33 -36 64 -41 70 -22 23 -7 30 59 30 84 -1 120 8 152
40 20 21 25 35 24 75 0 27 -6 55 -12 63 -6 7 -29 45 -50 83 -132 237 -297 531
-437 779 -13 22 -73 130 -134 240 -61 110 -125 212 -141 228 -23 21 -40 27
-73 27 -34 0 -49 -6 -69 -27z m110 -380 c22 -38 51 -88 64 -113 14 -25 118
-210 232 -412 113 -202 206 -369 206 -372 0 -3 -36 -6 -80 -6 -94 0 -132 -15
-156 -62 -24 -46 -14 -81 59 -209 36 -63 77 -136 92 -164 131 -235 317 -567
361 -643 30 -52 54 -96 54 -98 0 -2 10 -21 23 -42 30 -48 97 -170 97 -177 0
-3 -36 -5 -80 -5 -94 0 -132 -15 -156 -62 -22 -42 -14 -79 37 -168 50 -89 262
-468 294 -525 92 -168 321 -575 336 -597 11 -15 19 -32 19 -38 0 -7 -449 -10
-1440 -10 -792 0 -1440 2 -1440 5 0 3 66 124 147 268 81 144 162 289 180 322
19 33 38 67 43 75 5 8 58 103 118 210 60 107 121 218 137 245 84 150 85 153
61 210 -21 49 -60 65 -156 65 -44 0 -80 3 -80 6 0 3 52 99 117 212 121 216
134 239 175 312 21 38 161 287 246 440 175 312 176 314 148 368 -24 47 -62 62
-156 62 -44 0 -80 2 -80 5 0 3 115 211 255 461 141 250 261 466 267 479 6 14
13 25 14 25 2 0 21 -30 42 -67z"/>
<path d="M3290 4348 c-47 -17 -63 -53 -67 -151 -4 -106 8 -159 44 -186 29 -24
85 -27 123 -8 45 22 59 67 56 183 -2 102 -2 105 -32 135 -33 33 -80 43 -124
27z"/>
<path d="M3731 3338 c-32 -17 -59 -57 -62 -88 0 -14 -1 -64 0 -112 1 -81 3
-90 29 -119 21 -24 38 -32 75 -36 43 -5 49 -3 83 31 l36 36 -4 120 c-3 113 -4
121 -29 146 -31 30 -92 41 -128 22z"/>
<path d="M2093 5759 c-34 -17 -52 -44 -173 -261 -74 -133 -149 -267 -166 -297
-17 -31 -42 -76 -56 -101 -304 -540 -285 -497 -248 -557 26 -43 54 -56 117
-55 29 0 53 -2 53 -6 0 -3 -26 -51 -57 -106 -31 -56 -66 -119 -78 -141 -12
-22 -83 -148 -157 -280 -74 -132 -150 -267 -169 -300 -18 -33 -45 -82 -61
-110 -43 -78 -34 -144 25 -177 12 -7 48 -15 79 -18 l56 -5 -32 -55 c-18 -30
-51 -89 -73 -130 -50 -92 -149 -270 -162 -290 -6 -8 -20 -33 -31 -54 -12 -22
-73 -131 -136 -243 -63 -112 -117 -216 -119 -231 -4 -38 18 -87 50 -108 24
-16 58 -18 309 -19 154 -1 295 2 313 7 92 25 112 149 31 198 -30 18 -51 20
-215 20 -172 0 -182 1 -175 18 4 10 127 232 275 494 190 340 267 486 267 508
0 71 -43 110 -126 115 -27 2 -52 3 -57 4 -4 1 3 18 16 39 13 20 37 62 54 92
50 92 311 556 396 705 80 141 96 190 75 229 -26 47 -61 66 -127 66 -28 0 -51
2 -51 4 0 6 390 699 398 708 4 4 34 -40 67 -98 39 -70 68 -110 87 -120 39 -20
91 -17 121 6 30 24 51 80 42 112 -12 40 -217 399 -242 424 -13 13 -29 24 -36
25 -7 0 -20 2 -29 4 -9 2 -34 -6 -55 -16z"/>
<path d="M4846 5772 c-16 -2 -39 -10 -52 -19 -31 -20 -248 -410 -250 -448 -3
-63 45 -115 104 -115 56 0 84 23 132 107 24 43 52 91 61 106 l17 28 64 -113
c36 -62 80 -140 98 -173 18 -33 80 -143 137 -243 56 -101 103 -186 103 -188 0
-2 -23 -4 -50 -4 -28 0 -65 -7 -81 -16 -30 -15 -59 -65 -59 -102 0 -15 59
-126 195 -367 15 -27 81 -145 146 -262 65 -116 132 -235 149 -263 16 -28 30
-53 30 -56 0 -3 9 -19 21 -35 11 -16 19 -29 17 -30 -2 0 -29 -2 -60 -4 -66 -4
-101 -24 -119 -68 -21 -51 -13 -79 71 -222 10 -16 30 -52 45 -80 15 -27 47
-84 70 -125 57 -100 215 -381 253 -450 16 -30 46 -84 66 -118 20 -35 36 -66
36 -68 0 -2 -82 -4 -182 -4 -165 0 -186 -2 -216 -20 -70 -43 -70 -143 1 -185
29 -17 58 -19 320 -20 207 0 297 3 317 12 39 16 69 66 65 108 -2 20 -67 147
-162 316 -88 156 -174 309 -191 339 -17 30 -68 123 -115 205 l-85 150 57 5
c63 6 93 20 115 52 33 47 21 83 -87 278 -126 225 -149 266 -200 355 -22 39
-55 98 -73 132 -19 34 -47 85 -64 113 -16 28 -30 52 -30 54 0 2 -18 35 -40 72
-22 38 -40 72 -40 76 0 4 15 7 33 6 65 -3 87 3 118 30 50 45 46 95 -15 202
-71 125 -63 110 -324 575 -133 237 -248 437 -255 445 -18 22 -58 36 -91 32z"/>
</g>
</svg>
